# xmcd
#
# Track frame offsets:
#	151
#	12257
#	26870
#	47619
#	57900
#	78015
#	93615
#	111263
#
# Disc length: 1931 seconds
#
# Revision: 0
# Processed by: cddbd v1.5.2PL0 Copyright (c) Steve Scherf et al.
# Submitted via: audiograbber 1.83.01
#
DISCID=5d078908
DTITLE=Acoustic Pur - Headed for the Country!
DYEAR=2000
DGENRE=Country Rock
TTITLE0=Thats all
TTITLE1=Take a Ride
TTITLE2=Hoping
TTITLE3=They called him Mr.Pudding
TTITLE4=Rainbow Girl
TTITLE5=Sweet Darlene
TTITLE6=Satursdays Country Session
TTITLE7=Special Bonus Track
EXTD=
EXTT0=
EXTT1=
EXTT2=
EXTT3=
EXTT4=
EXTT5=
EXTT6=
EXTT7=
PLAYORDER=
